<svg version="1.2" xmlns="http://www.w3.org/2000/svg" viewBox="0 0 900 900" width="900" height="900">
	<title>modern-and-elegant-d-letter-initial-logo-design-free-vector-svg-svg</title>
	<style>
		.s0 { fill: #eef2ff } 
		.s1 { fill: #407bff } 
		.s2 { fill: #7aa3ff } 
	</style>
	<path id="Shape 4" class="s0" d="m0 150c0-82.8 67.2-150 150-150h600c82.8 0 150 67.2 150 150v600.9c0 82.9-67.2 150-150 150h-600c-82.8 0-150-67.1-150-150z"/>
	<path id="Layer" class="s1" d="m432.1 407.4v317q0 0 0 0.1 0.1 0.1 0.1 0.1 0.1 0.1 0.1 0.1 0.1 0.1 0.2 0.1 14-0.3 28-1.2c29.4-1.9 58.5-7.8 87.1-16.7 82.4-25.8 147.9-84.1 172.5-168.5q12.6-43.2 13.3-87.8c0.4-22.8-0.2-46.6-3.1-69.9-12.2-99.1-72.6-184.4-163.9-225.6q-0.5-0.2-0.5-0.7v-59.4q0 0 0.1-0.1 0 0 0 0 0-0.1 0.1-0.1 0 0 0.1 0c82.9 23.3 152.3 80.4 191.7 156.5 27.8 53.5 38.8 113.1 39.9 172.9 1.9 106.9-33.6 217.9-120.9 285.3-64.9 50.1-147.7 73.3-228.8 76.1-9.1 0.3-21.5-0.4-31.5-0.4q-68.6 0.1-137.2 0.2 0 0-0.1 0-0.1 0-0.2-0.1-0.1-0.1-0.1-0.2 0 0 0-0.1v-62.7q0-0.6 0.6-0.6h88.5q0 0 0.1 0 0.1 0 0.1-0.1 0.1 0 0.1-0.1 0.1-0.1 0.1-0.2v-314.1q0-0.1-0.1-0.1 0-0.1-0.1-0.2 0 0-0.1-0.1-0.1 0-0.1 0h-88.5q-0.2 0-0.3 0-0.1-0.1-0.2-0.2 0 0-0.1-0.1 0-0.1 0-0.3v-62.6q0-0.1 0-0.2 0-0.1 0.1-0.1 0-0.1 0.1-0.1 0.1 0 0.2 0h241.6q0.1 0 0.3 0 0.1 0.1 0.2 0.2 0 0 0.1 0.2 0 0.1 0 0.2l-0.2 62.8q0 0-0.1 0.1 0 0 0 0.1 0 0-0.1 0 0 0-0.1 0h-88.4q-0.6 0-0.6 0.6z"/>
	<path id="Layer" class="s2" d="m221.4 248q-1.5 164.7-2.7 329.3c-0.5 69.4-0.1 138.9 0.2 208.3q0 0.1 0 0.1-0.1 0.1-0.1 0.2-0.1 0-0.1 0-0.1 0.1-0.1 0.1h-61.1q-0.1 0-0.2-0.1 0 0-0.1-0.1 0 0-0.1-0.1 0 0 0-0.1 0-182.1 0-364.3c0-18.2 0.7-36.3 0.7-54.5q0.1-88 0.1-176 0-0.2 0-0.3 0.1-0.1 0.2-0.2 0.1-0.1 0.2-0.2 0.1 0 0.2 0 102.9-0.1 206.1 0 80.5 0.1 153.5 28.2 32.3 12.4 62.2 34.1c53.7 38.9 82.6 95.1 88.6 161.2 1.3 13.5 0.6 28 0.6 41.8q0 0.1 0 0.2-0.1 0.1-0.2 0.2-0.1 0.1-0.2 0.2-0.1 0-0.2 0h-62.3q-0.8 0-0.8-0.8c0.2-13 0.5-26.8-0.7-39.3-6.3-63.7-48.6-112.7-105.5-139.1-35.8-16.5-75.6-25-116.1-28.3q-7-0.6-15.4-0.6-73.2 0.1-146.3-0.2-0.1 0-0.2 0 0 0-0.1 0.1 0 0-0.1 0.1 0 0.1 0 0.1z"/>
</svg>